<?xml version="1.0"?>
<svg width="436" height="96" viewBox="0 0 436 96"
  xml:space="preserve"
  version="1.1"
  xmlns="http://www.w3.org/2000/svg">

<title>SVG graphic of net "C:\Users\ralmond\ownCloud\documents\BNTutorials\RussellsBayesNetClass\Networks\miniACED\CommonRatioEasyEM.dne" generated by AlmondR at FloridaStateU using Netica 5.18 on Apr 16, 2017 at 17:17:51.</title>

<polygon points="206,9.5 214,9.5 210,19 " fill="#000000" stroke="none"/>
<polyline points="210,0 210,10 " stroke="#000000" stroke-width="1" fill="none"/>
<text x="212" y="14" font-family="Arial" font-size="11.25">CommonRatio</text>
<g id="isCorrect">
<rect x="129" y="20" width="163" height="81" fill="#f8eed2" stroke-width="0"/>
<text x="177" y="37" font-family="Arial" font-size="11.25" font-weight="bold">isCorrect</text>
<line x1="129" y1="43" x2="292" y2="43" stroke="black" stroke-width="1"/>
<text x="140" y="58" font-family="Arial" font-size="11.25">Yes</text>
<text x="140" y="74" font-family="Arial" font-size="11.25">No</text>
<text x="187" y="58" font-family="Arial" font-size="11.25" fill="#a0a0a3">50.0</text>
<text x="187" y="74" font-family="Arial" font-size="11.25" fill="#a0a0a3">50.0</text>
<rect x="219" y="43" width="73" height="36" fill="#c6bea8" stroke-width="0"/>
<line x1="237" y1="44" x2="237" y2="78" stroke="black" stroke-width="1" stroke-dasharray="3,3"/>
<line x1="256" y1="44" x2="256" y2="78" stroke="black" stroke-width="1" stroke-dasharray="3,3"/>
<line x1="274" y1="44" x2="274" y2="78" stroke="black" stroke-width="1" stroke-dasharray="3,3"/>
<rect x="219" y="50" width="37" height="8" fill="#c0c0c0" stroke-width="0"/>
<rect x="219" y="66" width="37" height="8" fill="#c0c0c0" stroke-width="0"/>
<rect x="219" y="43" width="73" height="36" fill-opacity="0" stroke="#000000" stroke-width="1"/>
<line x1="129" y1="79" x2="292" y2="79" stroke="black" stroke-width="1"/>
<rect x="129" y="20" width="163" height="81" fill-opacity="0" stroke="#000000" stroke-width="1"/>
</g>

</svg>

