<?xml version="1.0"?>
<svg width="1242" height="228" viewBox="0 0 1242 228"
  xml:space="preserve"
  version="1.1"
  xmlns="http://www.w3.org/2000/svg">

<title>SVG graphic of net "C:\Users\ralmond\ownCloud\documents\BNTutorials\RussellsBayesNetClass\Networks\miniACED\miniACEDPnet.dne" generated by AlmondR at FloridaStateU using Netica 5.18 on Apr 16, 2017 at 17:17:14.</title>

<polygon points="1017.44,143.861 1018.95,136.003 1029,142 " fill="#000000" stroke="none"/>
<polyline points="564,54 1019,140 " stroke="#000000" stroke-width="1" fill="none"/>
<polygon points="741.299,126.711 744.218,119.262 753,127 " fill="#000000" stroke="none"/>
<polyline points="564,54 743,123 " stroke="#000000" stroke-width="1" fill="none"/>
<polygon points="572.25,114.25 578.75,112.75 577,120 " fill="#000000" stroke="none"/>
<polyline points="574,107 576,114 " stroke="#000000" stroke-width="1" fill="none"/>
<polygon points="448.05,111.503 451.628,118.658 440,120 " fill="#000000" stroke="none"/>
<polyline points="564,54 449,115 " stroke="#000000" stroke-width="1" fill="none"/>
<polygon points="221.63,139.346 223.654,147.086 212,146 " fill="#000000" stroke="none"/>
<polyline points="564,54 222,143 " stroke="#000000" stroke-width="1" fill="none"/>
<g id="SolveGeometricProblems">
<rect x="449" y="1" width="230" height="106" fill="#f8eed2" stroke-width="0"/>
<text x="465" y="19" font-family="Arial" font-size="12.5" font-weight="bold">SolveGeometricProblems</text>
<line x1="449" y1="25" x2="679" y2="25" stroke="black" stroke-width="1"/>
<text x="462" y="41" font-family="Arial" font-size="12.5">High</text>
<text x="462" y="59" font-family="Arial" font-size="12.5">Medium</text>
<text x="462" y="77" font-family="Arial" font-size="12.5">Low</text>
<text x="565" y="41" font-family="Arial" font-size="12.5">15.3</text>
<text x="565" y="59" font-family="Arial" font-size="12.5">27.8</text>
<text x="565" y="77" font-family="Arial" font-size="12.5">56.8</text>
<rect x="602" y="25" width="77" height="58" fill="#c6bea8" stroke-width="0"/>
<line x1="621" y1="26" x2="621" y2="82" stroke="black" stroke-width="1" stroke-dasharray="3,3"/>
<line x1="641" y1="26" x2="641" y2="82" stroke="black" stroke-width="1" stroke-dasharray="3,3"/>
<line x1="660" y1="26" x2="660" y2="82" stroke="black" stroke-width="1" stroke-dasharray="3,3"/>
<rect x="602" y="32" width="12" height="9" fill="#000000" stroke-width="0"/>
<rect x="602" y="50" width="21" height="9" fill="#000000" stroke-width="0"/>
<rect x="602" y="68" width="44" height="9" fill="#000000" stroke-width="0"/>
<rect x="602" y="25" width="77" height="58" fill-opacity="0" stroke="#000000" stroke-width="1"/>
<line x1="449" y1="83" x2="679" y2="83" stroke="black" stroke-width="1"/>
<text x="515" y="99" font-family="Arial" font-size="12.5">-0.402 &#177; 0.72</text>
<rect x="449" y="1" width="230" height="106" fill-opacity="0" stroke="#000000" stroke-width="1"/>
</g>
<g id="ModelGeometric">
<rect x="1030" y="109" width="208" height="106" fill="#f8eed2" stroke-width="0"/>
<text x="1070" y="127" font-family="Arial" font-size="12.5" font-weight="bold">ModelGeometric</text>
<line x1="1030" y1="133" x2="1238" y2="133" stroke="black" stroke-width="1"/>
<text x="1043" y="149" font-family="Arial" font-size="12.5">High</text>
<text x="1043" y="167" font-family="Arial" font-size="12.5">Medium</text>
<text x="1043" y="185" font-family="Arial" font-size="12.5">Low</text>
<text x="1124" y="149" font-family="Arial" font-size="12.5">5.39</text>
<text x="1124" y="167" font-family="Arial" font-size="12.5">13.4</text>
<text x="1124" y="185" font-family="Arial" font-size="12.5">81.3</text>
<rect x="1161" y="133" width="77" height="58" fill="#c6bea8" stroke-width="0"/>
<line x1="1180" y1="134" x2="1180" y2="190" stroke="black" stroke-width="1" stroke-dasharray="3,3"/>
<line x1="1200" y1="134" x2="1200" y2="190" stroke="black" stroke-width="1" stroke-dasharray="3,3"/>
<line x1="1219" y1="134" x2="1219" y2="190" stroke="black" stroke-width="1" stroke-dasharray="3,3"/>
<rect x="1161" y="140" width="4" height="9" fill="#000000" stroke-width="0"/>
<rect x="1161" y="158" width="10" height="9" fill="#000000" stroke-width="0"/>
<rect x="1161" y="176" width="63" height="9" fill="#000000" stroke-width="0"/>
<rect x="1161" y="133" width="77" height="58" fill-opacity="0" stroke="#000000" stroke-width="1"/>
<line x1="1030" y1="191" x2="1238" y2="191" stroke="black" stroke-width="1"/>
<text x="1085" y="207" font-family="Arial" font-size="12.5">-0.734 &#177; 0.52</text>
<rect x="1030" y="109" width="208" height="106" fill-opacity="0" stroke="#000000" stroke-width="1"/>
</g>
<g id="TableGeometric">
<rect x="754" y="115" width="208" height="106" fill="#f8eed2" stroke-width="0"/>
<text x="796" y="133" font-family="Arial" font-size="12.5" font-weight="bold">TableGeometric</text>
<line x1="754" y1="139" x2="962" y2="139" stroke="black" stroke-width="1"/>
<text x="767" y="155" font-family="Arial" font-size="12.5">High</text>
<text x="767" y="173" font-family="Arial" font-size="12.5">Medium</text>
<text x="767" y="191" font-family="Arial" font-size="12.5">Low</text>
<text x="848" y="155" font-family="Arial" font-size="12.5">24.0</text>
<text x="848" y="173" font-family="Arial" font-size="12.5">25.3</text>
<text x="848" y="191" font-family="Arial" font-size="12.5">50.7</text>
<rect x="885" y="139" width="77" height="58" fill="#c6bea8" stroke-width="0"/>
<line x1="904" y1="140" x2="904" y2="196" stroke="black" stroke-width="1" stroke-dasharray="3,3"/>
<line x1="924" y1="140" x2="924" y2="196" stroke="black" stroke-width="1" stroke-dasharray="3,3"/>
<line x1="943" y1="140" x2="943" y2="196" stroke="black" stroke-width="1" stroke-dasharray="3,3"/>
<rect x="885" y="146" width="19" height="9" fill="#000000" stroke-width="0"/>
<rect x="885" y="164" width="19" height="9" fill="#000000" stroke-width="0"/>
<rect x="885" y="182" width="39" height="9" fill="#000000" stroke-width="0"/>
<rect x="885" y="139" width="77" height="58" fill-opacity="0" stroke="#000000" stroke-width="1"/>
<line x1="754" y1="197" x2="962" y2="197" stroke="black" stroke-width="1"/>
<text x="813" y="213" font-family="Arial" font-size="12.5">-0.258 &#177; 0.8</text>
<rect x="754" y="115" width="208" height="106" fill-opacity="0" stroke="#000000" stroke-width="1"/>
</g>
<g id="ExtendGeometric">
<rect x="484" y="121" width="208" height="106" fill="#f8eed2" stroke-width="0"/>
<text x="520" y="139" font-family="Arial" font-size="12.5" font-weight="bold">ExtendGeometric</text>
<line x1="484" y1="145" x2="692" y2="145" stroke="black" stroke-width="1"/>
<text x="497" y="161" font-family="Arial" font-size="12.5">High</text>
<text x="497" y="179" font-family="Arial" font-size="12.5">Medium</text>
<text x="497" y="197" font-family="Arial" font-size="12.5">Low</text>
<text x="578" y="161" font-family="Arial" font-size="12.5">74.4</text>
<text x="578" y="179" font-family="Arial" font-size="12.5">22.5</text>
<text x="578" y="197" font-family="Arial" font-size="12.5">3.10</text>
<rect x="615" y="145" width="77" height="58" fill="#c6bea8" stroke-width="0"/>
<line x1="634" y1="146" x2="634" y2="202" stroke="black" stroke-width="1" stroke-dasharray="3,3"/>
<line x1="654" y1="146" x2="654" y2="202" stroke="black" stroke-width="1" stroke-dasharray="3,3"/>
<line x1="673" y1="146" x2="673" y2="202" stroke="black" stroke-width="1" stroke-dasharray="3,3"/>
<rect x="615" y="152" width="57" height="9" fill="#000000" stroke-width="0"/>
<rect x="615" y="170" width="17" height="9" fill="#000000" stroke-width="0"/>
<rect x="615" y="188" width="2" height="9" fill="#000000" stroke-width="0"/>
<rect x="615" y="145" width="77" height="58" fill-opacity="0" stroke="#000000" stroke-width="1"/>
<line x1="484" y1="203" x2="692" y2="203" stroke="black" stroke-width="1"/>
<text x="546" y="219" font-family="Arial" font-size="12.5">0.689 &#177; 0.5</text>
<rect x="484" y="121" width="208" height="106" fill-opacity="0" stroke="#000000" stroke-width="1"/>
</g>
<g id="ExamplesGeometric">
<rect x="238" y="121" width="208" height="106" fill="#f8eed2" stroke-width="0"/>
<text x="264" y="139" font-family="Arial" font-size="12.5" font-weight="bold">ExamplesGeometric</text>
<line x1="238" y1="145" x2="446" y2="145" stroke="black" stroke-width="1"/>
<text x="251" y="161" font-family="Arial" font-size="12.5">High</text>
<text x="251" y="179" font-family="Arial" font-size="12.5">Medium</text>
<text x="251" y="197" font-family="Arial" font-size="12.5">Low</text>
<text x="332" y="161" font-family="Arial" font-size="12.5">11.8</text>
<text x="332" y="179" font-family="Arial" font-size="12.5">20.0</text>
<text x="332" y="197" font-family="Arial" font-size="12.5">68.1</text>
<rect x="369" y="145" width="77" height="58" fill="#c6bea8" stroke-width="0"/>
<line x1="388" y1="146" x2="388" y2="202" stroke="black" stroke-width="1" stroke-dasharray="3,3"/>
<line x1="408" y1="146" x2="408" y2="202" stroke="black" stroke-width="1" stroke-dasharray="3,3"/>
<line x1="427" y1="146" x2="427" y2="202" stroke="black" stroke-width="1" stroke-dasharray="3,3"/>
<rect x="369" y="152" width="9" height="9" fill="#000000" stroke-width="0"/>
<rect x="369" y="170" width="15" height="9" fill="#000000" stroke-width="0"/>
<rect x="369" y="188" width="52" height="9" fill="#000000" stroke-width="0"/>
<rect x="369" y="145" width="77" height="58" fill-opacity="0" stroke="#000000" stroke-width="1"/>
<line x1="238" y1="203" x2="446" y2="203" stroke="black" stroke-width="1"/>
<text x="293" y="219" font-family="Arial" font-size="12.5">-0.545 &#177; 0.67</text>
<rect x="238" y="121" width="208" height="106" fill-opacity="0" stroke="#000000" stroke-width="1"/>
</g>
<g id="CommonRatio">
<rect x="4" y="121" width="208" height="106" fill="#f8eed2" stroke-width="0"/>
<text x="52" y="139" font-family="Arial" font-size="12.5" font-weight="bold">CommonRatio</text>
<line x1="4" y1="145" x2="212" y2="145" stroke="black" stroke-width="1"/>
<text x="17" y="161" font-family="Arial" font-size="12.5">High</text>
<text x="17" y="179" font-family="Arial" font-size="12.5">Medium</text>
<text x="17" y="197" font-family="Arial" font-size="12.5">Low</text>
<text x="98" y="161" font-family="Arial" font-size="12.5">74.4</text>
<text x="98" y="179" font-family="Arial" font-size="12.5">22.5</text>
<text x="98" y="197" font-family="Arial" font-size="12.5">3.10</text>
<rect x="135" y="145" width="77" height="58" fill="#c6bea8" stroke-width="0"/>
<line x1="154" y1="146" x2="154" y2="202" stroke="black" stroke-width="1" stroke-dasharray="3,3"/>
<line x1="174" y1="146" x2="174" y2="202" stroke="black" stroke-width="1" stroke-dasharray="3,3"/>
<line x1="193" y1="146" x2="193" y2="202" stroke="black" stroke-width="1" stroke-dasharray="3,3"/>
<rect x="135" y="152" width="57" height="9" fill="#000000" stroke-width="0"/>
<rect x="135" y="170" width="17" height="9" fill="#000000" stroke-width="0"/>
<rect x="135" y="188" width="2" height="9" fill="#000000" stroke-width="0"/>
<rect x="135" y="145" width="77" height="58" fill-opacity="0" stroke="#000000" stroke-width="1"/>
<line x1="4" y1="203" x2="212" y2="203" stroke="black" stroke-width="1"/>
<text x="66" y="219" font-family="Arial" font-size="12.5">0.689 &#177; 0.5</text>
<rect x="4" y="121" width="208" height="106" fill-opacity="0" stroke="#000000" stroke-width="1"/>
</g>

</svg>

