<?xml version="1.0"?>
<svg width="485" height="172" viewBox="0 0 485 172"
  xml:space="preserve"
  version="1.1"
  xmlns="http://www.w3.org/2000/svg">

<title>SVG graphic of net "C:\Users\ralmond\ownCloud\documents\BNTutorials\RussellsBayesNetClass\Networks\miniACED\ModelTableExtendHardEM.dne" generated by AlmondR at FloridaStateU using Netica 5.18 on Apr 16, 2017 at 17:18:42.</title>

<polygon points="275.052,62.9811 280.074,69.2084 269,73 " fill="#000000" stroke="none"/>
<polyline points="300,48 277,66 " stroke="#000000" stroke-width="1" fill="none"/>
<text x="300" y="64" font-family="Arial" font-size="11.25">ModelGeometric</text>
<polygon points="139.437,71.1839 143.304,64.1808 151,73 " fill="#000000" stroke="none"/>
<polyline points="84,36 142,68 " stroke="#000000" stroke-width="1" fill="none"/>
<text x="84" y="31" font-family="Arial" font-size="11.25">TableGeometric</text>
<polygon points="218,62 226,62 222,73 " fill="#000000" stroke="none"/>
<polyline points="222,24 222,63 " stroke="#000000" stroke-width="1" fill="none"/>
<text x="224" y="38" font-family="Arial" font-size="11.25">ExtendGeometric</text>
<g id="isCorrect">
<rect x="141" y="74" width="163" height="81" fill="#f8eed2" stroke-width="0"/>
<text x="189" y="91" font-family="Arial" font-size="11.25" font-weight="bold">isCorrect</text>
<line x1="141" y1="97" x2="304" y2="97" stroke="black" stroke-width="1"/>
<text x="152" y="112" font-family="Arial" font-size="11.25">Yes</text>
<text x="152" y="128" font-family="Arial" font-size="11.25">No</text>
<text x="199" y="112" font-family="Arial" font-size="11.25" fill="#a0a0a3">50.0</text>
<text x="199" y="128" font-family="Arial" font-size="11.25" fill="#a0a0a3">50.0</text>
<rect x="231" y="97" width="73" height="36" fill="#c6bea8" stroke-width="0"/>
<line x1="249" y1="98" x2="249" y2="132" stroke="black" stroke-width="1" stroke-dasharray="3,3"/>
<line x1="268" y1="98" x2="268" y2="132" stroke="black" stroke-width="1" stroke-dasharray="3,3"/>
<line x1="286" y1="98" x2="286" y2="132" stroke="black" stroke-width="1" stroke-dasharray="3,3"/>
<rect x="231" y="104" width="37" height="8" fill="#c0c0c0" stroke-width="0"/>
<rect x="231" y="120" width="37" height="8" fill="#c0c0c0" stroke-width="0"/>
<rect x="231" y="97" width="73" height="36" fill-opacity="0" stroke="#000000" stroke-width="1"/>
<line x1="141" y1="133" x2="304" y2="133" stroke="black" stroke-width="1"/>
<rect x="141" y="74" width="163" height="81" fill-opacity="0" stroke="#000000" stroke-width="1"/>
</g>

</svg>

